<svg xmlns="http://www.w3.org/2000/svg" viewBox="0 0 141.73 129.31">
  <defs>
    <style>
      .cls-1 {
        fill: #9b6f75;
      }

      .cls-2 {
        fill: #6da454;
      }

      .cls-3 {
        fill: #91c15b;
      }

      .cls-4 {
        fill: #fff;
      }

      .cls-5 {
        fill: #48443e;
      }

      .cls-6 {
        fill: #afafaf;
      }

      .cls-7 {
        fill: #201600;
      }

      .cls-8 {
        fill: #312a20;
      }

      .cls-9 {
        fill: #003654;
      }

      .cls-10 {
        fill: #4a82c4;
      }

      .cls-11 {
        fill: #979695;
      }
    </style>
  </defs>
  <title>Ресурс 1</title>
  <g id="Слой_2" data-name="Слой 2">
    <g id="Layer_1" data-name="Layer 1">
      <g>
        <path class="cls-1" d="M81.15,78.45v.06h.45l-.45,0m39.23,14.4a55.43,55.43,0,0,1-99.07.06c8.17-1,16.09-1.78,25.18-2.39h0l3.59-.19c2.08-.11,4.16-.21,6.24-.27l3.8-.15,0-3.39c0-1.63-.57-3.08-.52-4.71,0-.55,0-1.11.06-1.66A18.52,18.52,0,0,0,66,79a9.78,9.78,0,0,0,2.69-1.73c0,3-1.16,6-1.15,9.07l.35,3.43,4,0c3.25,0,6.49.06,9.74.15A22.93,22.93,0,0,0,88,89.42a8.88,8.88,0,0,0,5-3.49,8.79,8.79,0,0,0,.82-1.4A15.61,15.61,0,0,0,95,86.23a14,14,0,0,0,10.35,5.39c4,.34,8-.63,10.45-4.25l.08-.11.25,2.34.28,2.7,2.54.34,1.46.2"/>
        <path class="cls-2" d="M85.63,53a.78.78,0,0,1-.16-.7l6.17-24.21a.78.78,0,0,1,.95-.56l9.8,2.53a.78.78,0,0,1,.56.95L96.78,55.26a.78.78,0,0,1-.49.54h0l-3.13,4c-.18.23-.64,0-.82-.18l-6.71-6.6Z"/>
        <path class="cls-2" d="M58.52,47.48a.78.78,0,0,1-.44-.57L53.68,22.32a.78.78,0,0,1,.63-.9l10-1.76a.78.78,0,0,1,.9.63l4.41,24.59a.78.78,0,0,1-.22.69h0l-1.18,5c-.07.28-.58.26-.82.17l-8.84-3.23Z"/>
        <path class="cls-2" d="M47.82,58.3a.78.78,0,0,1-.44-.57L43,33.14a.78.78,0,0,1,.63-.9l10-1.76a.78.78,0,0,1,.9.63L58.88,55.7a.78.78,0,0,1-.22.69h0l-1.18,5c-.07.28-.58.26-.82.17l-8.84-3.23Z"/>
        <path class="cls-2" d="M24.77,61.44a.77.77,0,0,1-.51-.51L16.84,37.08a.78.78,0,0,1,.51-1l9.67-3a.78.78,0,0,1,1,.51l7.43,23.86a.78.78,0,0,1-.13.71h0l-.56,5.07c0,.28-.54.33-.79.27l-9.17-2.1Z"/>
        <path class="cls-2" d="M110.48,62.24a.78.78,0,0,1-.15-.7l6.56-24.11a.78.78,0,0,1,1-.55l9.76,2.68a.78.78,0,0,1,.54,1l-6.56,24.11a.78.78,0,0,1-.49.53h0l-3.19,4c-.18.22-.64,0-.81-.19l-6.61-6.7Z"/>
        <polygon class="cls-3" points="85.4 30.53 96.8 32.33 95.27 39.14 113.88 43.26 109.38 63.6 78.45 56.75 85.4 30.53"/>
        <path class="cls-3" d="M113.37,26.83l-10-2.68a1.43,1.43,0,0,0-1.75,1l-5,18.75a1.43,1.43,0,0,0,1,1.75l10,2.68a1.43,1.43,0,0,0,1.75-1l5-18.75a1.43,1.43,0,0,0-1-1.75"/>
        <path class="cls-4" d="M112.29,28.35,103.54,26a.44.44,0,0,0-.54.31L98.62,42.68a.44.44,0,0,0,.31.54l8.74,2.34a.44.44,0,0,0,.54-.31l4.38-16.36a.44.44,0,0,0-.31-.54"/>
        <path class="cls-3" d="M107,28.6l-4.28-1.14a.54.54,0,0,0-.66.38l-.14.52a.54.54,0,0,0,.38.66l4.28,1.14a.54.54,0,0,0,.66-.38l.14-.52a.54.54,0,0,0-.38-.66"/>
        <path class="cls-3" d="M112.41,30.55,106.73,29a.22.22,0,0,0-.27.16l-.06.21a.22.22,0,0,0,.16.27l5.68,1.52a.22.22,0,0,0,.27-.16l.06-.21a.22.22,0,0,0-.16-.27"/>
        <path class="cls-3" d="M111.57,33.68l-5.68-1.52a.22.22,0,0,0-.27.16l-.06.21a.22.22,0,0,0,.16.27l5.68,1.52a.22.22,0,0,0,.27-.16l.06-.21a.22.22,0,0,0-.16-.27"/>
        <path class="cls-3" d="M110.74,36.81l-5.68-1.52a.22.22,0,0,0-.27.16l-.06.21a.22.22,0,0,0,.16.27l5.68,1.52a.22.22,0,0,0,.27-.16l.06-.21a.22.22,0,0,0-.16-.27"/>
        <path class="cls-3" d="M109.9,39.94l-5.68-1.52a.22.22,0,0,0-.27.16l-.06.21a.22.22,0,0,0,.16.27l5.68,1.52a.22.22,0,0,0,.27-.16l.06-.21a.22.22,0,0,0-.16-.27"/>
        <path class="cls-3" d="M109.06,43.07l-5.68-1.52a.22.22,0,0,0-.27.16l-.06.21a.22.22,0,0,0,.16.27l5.68,1.52a.22.22,0,0,0,.27-.16l.06-.22a.22.22,0,0,0-.16-.27"/>
        <path class="cls-3" d="M106.14,31.73l-4.77-1.28L100.95,32l4.77,1.28a.54.54,0,0,0,.66-.38l.14-.52a.54.54,0,0,0-.38-.66"/>
        <path class="cls-3" d="M105.3,34.86l-4.77-1.28-.42,1.56,4.77,1.28a.54.54,0,0,0,.66-.38l.14-.52a.54.54,0,0,0-.38-.66"/>
        <path class="cls-3" d="M104.46,38l-4.77-1.28-.42,1.56L104,39.56a.54.54,0,0,0,.66-.38l.14-.52a.54.54,0,0,0-.38-.66"/>
        <path class="cls-3" d="M103.62,41.12l-4.77-1.28-.42,1.57,4.77,1.27a.54.54,0,0,0,.66-.38l.14-.52a.54.54,0,0,0-.38-.66"/>
        <path class="cls-3" d="M124.58,35.46a.79.79,0,0,1,.17.69L119,60.48a.78.78,0,0,1-.93.58l-14.64-3.43a.78.78,0,0,1-.58-.94l5.7-24.32a.78.78,0,0,1,.48-.55h0L117.46,29a.87.87,0,0,1,.82.16l6.3,6.31Z"/>
        <path class="cls-4" d="M122.12,37.53l-1.1-.26a.23.23,0,0,0-.27.17l-.32,1.37a.22.22,0,0,0,.17.27l1.1.26a.23.23,0,0,0,.27-.17l.32-1.37a.22.22,0,0,0-.17-.27"/>
        <path class="cls-4" d="M114.44,35.73l-1.1-.25a.22.22,0,0,0-.27.17L112.75,37a.23.23,0,0,0,.17.27l1.1.26a.23.23,0,0,0,.27-.17l.32-1.37a.23.23,0,0,0-.17-.27"/>
        <path class="cls-4" d="M113.59,39.35l-1.1-.26a.23.23,0,0,0-.27.17l-.32,1.37a.23.23,0,0,0,.17.27l1.1.26a.22.22,0,0,0,.27-.17l.32-1.37a.23.23,0,0,0-.17-.27"/>
        <path class="cls-4" d="M112.74,43l-1.1-.26a.23.23,0,0,0-.27.17L111,44.26a.23.23,0,0,0,.17.27l1.1.26a.23.23,0,0,0,.27-.17l.32-1.37a.22.22,0,0,0-.17-.27"/>
        <path class="cls-4" d="M111.36,35l-1.1-.26a.23.23,0,0,0-.27.17l-.32,1.37a.23.23,0,0,0,.17.27l1.1.26a.23.23,0,0,0,.27-.17l.32-1.37a.22.22,0,0,0-.17-.27"/>
        <path class="cls-4" d="M121.27,41.15l-1.1-.26a.23.23,0,0,0-.27.17l-.32,1.37a.23.23,0,0,0,.17.27l1.09.26a.23.23,0,0,0,.27-.17l.32-1.37a.23.23,0,0,0-.17-.27"/>
        <path class="cls-4" d="M117.35,44.05l-1.1-.26A.23.23,0,0,0,116,44l-.32,1.37a.23.23,0,0,0,.17.27l1.1.26a.23.23,0,0,0,.27-.17l.32-1.37a.23.23,0,0,0-.17-.27"/>
        <path class="cls-3" d="M92.44,65.77a.78.78,0,0,1-.16-.7l6.17-24.21a.78.78,0,0,1,.95-.56l11.51,3a.78.78,0,0,1,.56.94L105.3,68.46a.78.78,0,0,1-.49.54h0L100,72.55c-.23.17-.63,0-.82-.18l-6.71-6.6Z"/>
        <path class="cls-3" d="M76.24,42.24a.78.78,0,0,1-.2-.69L80.82,17a.78.78,0,0,1,.91-.61l9.38,1.83a.78.78,0,0,1,.62.91L86.95,43.67a.78.78,0,0,1-.45.56h0l-2.9,4.2c-.16.23-.64,0-.83-.13l-6.53-6.07Z"/>
        <path class="cls-4" d="M86.65,19.38l-1.11-.21a.23.23,0,0,0-.27.18L85,20.72a.23.23,0,0,0,.18.27l1.11.22a.23.23,0,0,0,.26-.18l.27-1.38a.22.22,0,0,0-.18-.27"/>
        <path class="cls-4" d="M89.75,20l-1.1-.22a.22.22,0,0,0-.26.18l-.27,1.38a.22.22,0,0,0,.18.26l1.11.22a.23.23,0,0,0,.26-.18l.27-1.38a.22.22,0,0,0-.18-.26"/>
        <path class="cls-4" d="M85.94,23l-1.11-.21a.22.22,0,0,0-.26.18l-.27,1.38a.23.23,0,0,0,.18.27l1.11.22a.23.23,0,0,0,.26-.18l.27-1.38a.23.23,0,0,0-.18-.27"/>
        <path class="cls-4" d="M89,23.63l-1.11-.21a.22.22,0,0,0-.26.18L87.39,25a.23.23,0,0,0,.18.26l1.1.22a.23.23,0,0,0,.27-.18l.27-1.38a.23.23,0,0,0-.18-.26"/>
        <path class="cls-4" d="M84.51,30.33l-1.11-.21a.23.23,0,0,0-.27.18l-.27,1.38a.23.23,0,0,0,.18.26l1.1.22a.23.23,0,0,0,.26-.18l.27-1.38a.22.22,0,0,0-.18-.27"/>
        <path class="cls-4" d="M82.13,26.08,81,25.86a.23.23,0,0,0-.26.18l-.27,1.38a.23.23,0,0,0,.18.27l1.11.21a.22.22,0,0,0,.26-.18l.27-1.39a.23.23,0,0,0-.18-.26"/>
        <path class="cls-4" d="M83.55,18.78l-1.11-.22a.23.23,0,0,0-.26.18l-.27,1.38a.23.23,0,0,0,.18.27l1.1.22a.23.23,0,0,0,.27-.18L83.73,19a.23.23,0,0,0-.18-.26"/>
        <path class="cls-3" d="M36.77,25.07a.78.78,0,0,1,.47.54L42.9,49.95a.78.78,0,0,1-.58.93L27.68,54.29a.78.78,0,0,1-.93-.58L21.08,29.38a.78.78,0,0,1,.18-.7h0l6.26-6.26a.87.87,0,0,1,.81-.22l8.44,2.87Z"/>
        <path class="cls-3" d="M35.22,18.63a.89.89,0,0,1,.53.62l6.51,27.92c.11.48-.25.82-.67,1.07l-7.77,4.62c-.42.25-1-.19-1.07-.67L27.07,27.82a.89.89,0,0,1,.21-.8h0L24.71,16c-.14-.61.35-.88.82-.72l9.69,3.29Z"/>
        <path class="cls-4" d="M27.35,28.62l-1.1.26a.23.23,0,0,0-.17.27l.32,1.37a.23.23,0,0,0,.27.17l1.1-.26a.22.22,0,0,0,.17-.27l-.32-1.37a.23.23,0,0,0-.27-.17"/>
        <path class="cls-4" d="M24.28,29.34l-1.1.26a.23.23,0,0,0-.17.27l.32,1.37a.23.23,0,0,0,.27.17l1.1-.26a.22.22,0,0,0,.17-.27l-.32-1.37a.23.23,0,0,0-.27-.17"/>
        <path class="cls-4" d="M32.54,19.2l-1.1.26a.23.23,0,0,0-.17.27l.32,1.37a.23.23,0,0,0,.27.17L33,21a.22.22,0,0,0,.17-.27l-.32-1.37a.23.23,0,0,0-.27-.17"/>
        <path class="cls-4" d="M33.39,22.83l-1.1.26a.23.23,0,0,0-.17.27l.32,1.37a.23.23,0,0,0,.27.17l1.1-.25a.22.22,0,0,0,.17-.27L33.66,23a.23.23,0,0,0-.27-.17"/>
        <path class="cls-4" d="M29.47,19.92l-1.1.25a.23.23,0,0,0-.17.27l.32,1.37a.23.23,0,0,0,.27.17l1.1-.26a.23.23,0,0,0,.17-.27l-.32-1.37a.23.23,0,0,0-.27-.17"/>
        <path class="cls-4" d="M28.2,32.25l-1.1.26a.23.23,0,0,0-.17.27l.32,1.37a.23.23,0,0,0,.27.17l1.1-.26a.23.23,0,0,0,.17-.27l-.32-1.37a.22.22,0,0,0-.27-.17"/>
        <path class="cls-4" d="M34.51,36.75l-1.1.25a.23.23,0,0,0-.17.27l.32,1.37a.23.23,0,0,0,.27.17l1.1-.25a.23.23,0,0,0,.17-.27l-.32-1.37a.23.23,0,0,0-.27-.17"/>
        <path class="cls-3" d="M55.49,5.69C50.17,7,50.61,11,50.88,15.22l1.59,25c.07,1.08-1.39,1.41-1.52-.16L50.08,30c-.08-1-.42-3.49.4-3.84.41-.09.23-.87-.22-.73l-10.84,3c-.35.1-.19.82.18.7,1-.2,1.35,1.15,1.47,2.87l.75,10.55c.37,5.16,3.58,9.31,8.8,9.27a9.65,9.65,0,0,0,9-6.35c.76-2,.2-5.92-.05-7.23L55.1,16.87c-.36-1.75-1.14-4.6-.5-6.29a3.71,3.71,0,0,1,1-1.42,4,4,0,0,1,2.64-1,13.22,13.22,0,0,1,2.28.5l.08-2c-1.67-.47-2.52-1.54-5.06-.9"/>
        <path class="cls-4" d="M53.23,18.68a.73.73,0,1,0-.71-.74.72.72,0,0,0,.71.74"/>
        <path class="cls-4" d="M53.91,23.65a.72.72,0,1,0-.71-.74.73.73,0,0,0,.71.74"/>
        <path class="cls-4" d="M54.6,28.62a.73.73,0,1,0-.71-.74.73.73,0,0,0,.71.74"/>
        <path class="cls-4" d="M55.29,33.59a.72.72,0,1,0-.71-.74.72.72,0,0,0,.71.74"/>
        <path class="cls-4" d="M56,38.56a.73.73,0,1,0-.71-.74.73.73,0,0,0,.71.74"/>
        <path class="cls-4" d="M42.57,30.38l1.13-.08a.22.22,0,0,1,.24.21l.65,8.87a.23.23,0,0,1-.21.24l-1.12.08A.23.23,0,0,1,43,39.5l-.65-8.87a.22.22,0,0,1,.21-.24"/>
        <path class="cls-4" d="M45.71,30.15l1.12-.08a.23.23,0,0,1,.24.21l.28,3.86a.23.23,0,0,1-.21.24L46,34.47a.23.23,0,0,1-.24-.21l-.28-3.87a.23.23,0,0,1,.21-.24"/>
        <rect class="cls-3" x="68.8" y="9.67" width="4.06" height="27.62"/>
        <g>
          <path class="cls-3" d="M73.52,0H68.14a1.65,1.65,0,0,0-1.69,1.69l.67,9.37a1.74,1.74,0,0,0,1.69,1.69h4a1.74,1.74,0,0,0,1.69-1.69l.67-9.37A1.65,1.65,0,0,0,73.52,0"/>
          <path class="cls-4" d="M68.64,1.9h1.13a.23.23,0,0,1,.23.22V3.54a.23.23,0,0,1-.23.22H68.64a.23.23,0,0,1-.23-.22V2.13a.23.23,0,0,1,.23-.22"/>
          <path class="cls-4" d="M68.64,5.62h1.13a.23.23,0,0,1,.23.22V7.26a.23.23,0,0,1-.23.22H68.64a.23.23,0,0,1-.23-.22V5.85a.23.23,0,0,1,.23-.22"/>
          <path class="cls-4" d="M71.8,9.34h1.13a.23.23,0,0,1,.23.23V11a.23.23,0,0,1-.23.23H71.8a.23.23,0,0,1-.23-.23V9.57a.23.23,0,0,1,.23-.23"/>
          <path class="cls-2" d="M82.71,42l.08.07.24.23a11.73,11.73,0,0,1,3.66,8.4c0,7-6.51,12.66-14.54,12.66S57.62,57.65,57.62,50.66a11.72,11.72,0,0,1,3.66-8.4l.24-.23L61.6,42h0A5.06,5.06,0,0,0,63,38.45a4.87,4.87,0,0,0-.53-2.2h0a8.16,8.16,0,0,1-.91-3.74c0-5.07,4.73-9.19,10.55-9.19s10.55,4.11,10.55,9.19a8.16,8.16,0,0,1-.91,3.74h0a4.87,4.87,0,0,0-.53,2.2,5.06,5.06,0,0,0,1.44,3.5Z"/>
          <path class="cls-3" d="M81.39,41.21l.08.07.24.23a11.73,11.73,0,0,1,3.66,8.4c0,7-6.51,12.65-14.54,12.65S56.29,56.9,56.29,49.91A11.73,11.73,0,0,1,60,41.51l.24-.23.08-.07h0a5.07,5.07,0,0,0,1.44-3.49,4.88,4.88,0,0,0-.53-2.2h0a8.17,8.17,0,0,1-.91-3.74c0-5.08,4.72-9.19,10.55-9.19s10.56,4.11,10.56,9.19a8.16,8.16,0,0,1-.91,3.74h0a4.88,4.88,0,0,0-.53,2.2,5.07,5.07,0,0,0,1.44,3.49Z"/>
          <path class="cls-4" d="M71,37.71a4.21,4.21,0,1,1-4.21,4.21A4.21,4.21,0,0,1,71,37.71"/>
        </g>
        <rect class="cls-3" x="70.54" y="35.33" width="1.03" height="12.58"/>
        <rect class="cls-3" x="68.23" y="35.33" width="1.03" height="12.58"/>
        <rect class="cls-3" x="72.84" y="35.33" width="1.03" height="12.58"/>
        <g>
          <path class="cls-4" d="M64.57,27.42H65.7a.23.23,0,0,1,.23.22v4a.23.23,0,0,1-.23.23H64.57a.23.23,0,0,1-.23-.23v-4a.23.23,0,0,1,.23-.22"/>
          <path class="cls-4" d="M67.73,27.42h1.13a.23.23,0,0,1,.22.22v1.41a.22.22,0,0,1-.22.22H67.73a.23.23,0,0,1-.23-.22V27.64a.23.23,0,0,1,.23-.22"/>
          <path class="cls-2" d="M97.3,32c-.95,8.81-1.91,18.5-4.82,27.39l-.58-.12-3.57-.72-.58-.12c0-8.91,2.59-17.86,4.31-26.06Z"/>
          <path class="cls-3" d="M91.8,9.53,97.93,11l3.49.85,6.12,1.5a.69.69,0,0,1,.51.83l-.22.91a.69.69,0,0,1-.77.52c-3.61-.45-6.31,2.11-7.2,5.74-2.67,10.9-4.13,24.87-9.25,37.14L90,58.37l-3.49-.85L86,57.38c1.12-13.25,6.27-26.31,8.94-37.21.89-3.63-.3-7.14-3.72-8.41a.69.69,0,0,1-.46-.82L91,10a.69.69,0,0,1,.83-.51"/>
          <path class="cls-2" d="M37.29,35.17A16.52,16.52,0,1,1,20.77,51.68,16.51,16.51,0,0,1,37.29,35.17"/>
          <path class="cls-3" d="M35.28,33.27A16.52,16.52,0,1,1,18.77,49.79,16.52,16.52,0,0,1,35.28,33.27"/>
          <path class="cls-4" d="M21.67,49.79a.63.63,0,0,1-1.25,0A14.86,14.86,0,0,1,35.28,34.93a.63.63,0,1,1,0,1.25A13.61,13.61,0,0,0,21.67,49.79"/>
          <path class="cls-4" d="M24.54,49.79a.63.63,0,0,1-1.26,0,12,12,0,0,1,12-12,.63.63,0,1,1,0,1.26A10.75,10.75,0,0,0,24.54,49.79"/>
          <path class="cls-4" d="M35.28,45.11a4.68,4.68,0,1,1-4.68,4.68,4.68,4.68,0,0,1,4.68-4.68"/>
          <path class="cls-3" d="M35.28,48.52A1.26,1.26,0,1,1,34,49.79a1.26,1.26,0,0,1,1.26-1.26"/>
          <path class="cls-3" d="M130,31h0a.32.32,0,0,1,.19.41l-1.79,4.8a.32.32,0,1,1-.6-.23l1.79-4.8A.32.32,0,0,1,130,31"/>
          <path class="cls-3" d="M127.75,34.69a1.17,1.17,0,1,1-1.5.68,1.17,1.17,0,0,1,1.5-.68"/>
          <path class="cls-3" d="M62.95,7.85h0a.45.45,0,0,1,.49.41l.63,7.17a.45.45,0,1,1-.9.08l-.63-7.16a.45.45,0,0,1,.41-.49"/>
          <path class="cls-3" d="M62.29,13.93a1.64,1.64,0,1,1-1.49,1.77,1.64,1.64,0,0,1,1.49-1.77"/>
        </g>
        <polygon class="cls-3" points="110.71 14.64 111.47 14.88 109.3 21.71 108.54 21.47 110.71 14.64"/>
        <path class="cls-3" d="M108.36,19.89a1.45,1.45,0,1,1-1.82.94,1.45,1.45,0,0,1,1.82-.94"/>
        <rect class="cls-3" x="111.51" y="18.34" width="7.16" height="0.8" transform="translate(62.32 122.72) rotate(-72.34)"/>
        <path class="cls-3" d="M113.44,20.45a1.45,1.45,0,1,1-1.82.94,1.45,1.45,0,0,1,1.82-.94"/>
        <polygon class="cls-3" points="110.21 16.22 116.22 16.5 116.76 14.81 110.75 14.53 110.21 16.22"/>
        <rect class="cls-3" x="41.83" y="13.83" width="0.9" height="8.12" transform="translate(-0.84 2.13) rotate(-2.86)"/>
        <path class="cls-3" d="M41.21,20.37a1.64,1.64,0,1,1-1.56,1.72,1.64,1.64,0,0,1,1.56-1.72"/>
        <rect class="cls-3" x="47.45" y="12.4" width="0.9" height="8.12" transform="translate(-0.77 2.46) rotate(-2.91)"/>
        <path class="cls-3" d="M46.83,18.94a1.64,1.64,0,1,1-1.56,1.72,1.64,1.64,0,0,1,1.56-1.72"/>
        <polygon class="cls-3" points="41.72 15.74 48.21 13.64 48.11 11.63 41.62 13.72 41.72 15.74"/>
        <rect class="cls-3" x="73.63" y="10.06" width="11.64" height="1.29" transform="translate(58.91 88.19) rotate(-82.82)"/>
        <g>
          <path class="cls-3" d="M77.32,13.93a2.35,2.35,0,1,1-2.63,2,2.35,2.35,0,0,1,2.63-2"/>
          <path class="cls-3" d="M79.36,6.24c2.51-.46,4.8,1.86,5.24,4.12.65-3.74-1.85-6.74-4.88-6.9Z"/>
        </g>
        <rect class="cls-3" x="17.03" y="21.77" width="0.84" height="7.54" transform="translate(-5.63 4.95) rotate(-13.93)"/>
        <path class="cls-3" d="M16.92,28a1.52,1.52,0,1,1-1.11,1.85A1.53,1.53,0,0,1,16.92,28"/>
        <path class="cls-3" d="M16.35,22.87c1.41-.86,3.33,0,4.13,1.26a3.65,3.65,0,0,0-4.57-3Z"/>
        <path class="cls-5" d="M132.1,67.47c0,.19,0,.37,0,.56A61.28,61.28,0,1,1,9.54,68c0-.19,0-.37,0-.56Z"/>
        <path class="cls-6" d="M81.15,78.45v.06h.45l-.45,0m44.27,15.12a60.28,60.28,0,0,1-109.17,0c10-1.43,19.29-2.34,30.23-3.08h0l3.59-.19c2.08-.11,4.16-.21,6.23-.27l3.8-.15,0-3.39c0-1.63-.57-3.08-.52-4.71,0-.55,0-1.11.06-1.66A18.52,18.52,0,0,0,66,79a9.69,9.69,0,0,0,2.69-1.73c0,3-1.16,6-1.15,9.07l.35,3.43,4,0c3.25,0,6.49.06,9.74.15A22.93,22.93,0,0,0,88,89.42a9.16,9.16,0,0,0,5.79-4.88A15.76,15.76,0,0,0,95,86.23a14,14,0,0,0,10.35,5.39c4,.34,8-.63,10.45-4.25l.08-.11c.08.78.16,1.56.25,2.35l.28,2.7,2.54.34q3.26.44,6.51.92"/>
        <path class="cls-7" d="M127.43,67.47c0,.19,0,.37,0,.56A56.61,56.61,0,0,1,14.21,68c0-.19,0-.37,0-.56Z"/>
        <path class="cls-8" d="M114.09,99.05A1.93,1.93,0,1,1,116,97.13a1.93,1.93,0,0,1-1.93,1.93m-2.89,2.89a1.93,1.93,0,1,1,1.93-1.93,1.93,1.93,0,0,1-1.93,1.93m-2.89,2.89a1.93,1.93,0,1,1,1.93-1.93,1.93,1.93,0,0,1-1.93,1.93m-2.89,2.89a1.93,1.93,0,1,1,1.93-1.93,1.93,1.93,0,0,1-1.93,1.93m-2.89,2.89a1.93,1.93,0,1,1,1.93-1.93,1.93,1.93,0,0,1-1.93,1.93m-2.89,2.89a1.93,1.93,0,1,1,1.93-1.93,1.93,1.93,0,0,1-1.93,1.93m-2.89,2.89a1.93,1.93,0,1,1,1.93-1.93,1.93,1.93,0,0,1-1.93,1.93m-4.82-4.82a1.93,1.93,0,1,1,1.93,1.93,1.93,1.93,0,0,1-1.93-1.93m-1,4.82a1.93,1.93,0,1,1,1.93-1.93,1.93,1.93,0,0,1-1.93,1.93m-2.89,2.89A1.93,1.93,0,1,1,90,117.38a1.93,1.93,0,0,1-1.93,1.93m-4.82-4.82a1.93,1.93,0,1,1,1.93,1.93,1.93,1.93,0,0,1-1.93-1.93m-1,4.82a1.93,1.93,0,1,1,1.93-1.93,1.93,1.93,0,0,1-1.93,1.93m-2.89,2.89a1.93,1.93,0,1,1,1.93-1.93,1.93,1.93,0,0,1-1.93,1.93m-4.82-4.82a1.93,1.93,0,1,1,1.93,1.93,1.93,1.93,0,0,1-1.93-1.93m-1,4.82a1.93,1.93,0,1,1,1.93-1.93,1.93,1.93,0,0,1-1.93,1.93m-4.82-4.82a1.93,1.93,0,1,1,1.93,1.93,1.93,1.93,0,0,1-1.93-1.93m-1,4.82a1.93,1.93,0,1,1,1.93-1.93,1.93,1.93,0,0,1-1.93,1.93M63,117.38a1.93,1.93,0,1,1,1.93,1.93A1.93,1.93,0,0,1,63,117.38m-1,4.82A1.93,1.93,0,1,1,64,120.27,1.93,1.93,0,0,1,62,122.2m-4.82-4.82a1.93,1.93,0,1,1,1.93,1.93,1.93,1.93,0,0,1-1.93-1.93m-2.89-2.89a1.93,1.93,0,1,1,1.93,1.93,1.93,1.93,0,0,1-1.93-1.93m-1,4.82a1.93,1.93,0,1,1,1.93-1.93,1.93,1.93,0,0,1-1.93,1.93m-4.82-4.82a1.93,1.93,0,1,1,1.93,1.93,1.93,1.93,0,0,1-1.93-1.93m-2.89-2.89a1.93,1.93,0,1,1,1.93,1.93,1.93,1.93,0,0,1-1.93-1.93m-1,4.82a1.93,1.93,0,1,1,1.93-1.93,1.93,1.93,0,0,1-1.93,1.93m-4.82-4.82a1.93,1.93,0,1,1,1.93,1.93,1.93,1.93,0,0,1-1.93-1.93M37,108.7a1.93,1.93,0,1,1,1.93,1.93A1.93,1.93,0,0,1,37,108.7m-2.89-2.89A1.93,1.93,0,1,1,36,107.73a1.93,1.93,0,0,1-1.93-1.93m-2.89-2.89a1.93,1.93,0,1,1,1.93,1.93,1.93,1.93,0,0,1-1.93-1.93M28.27,100a1.93,1.93,0,1,1,1.93,1.93A1.93,1.93,0,0,1,28.27,100m-2.89-2.89a1.93,1.93,0,1,1,1.93,1.93,1.93,1.93,0,0,1-1.93-1.93M30.2,92.3a1.93,1.93,0,1,1-1.93,1.93A1.93,1.93,0,0,1,30.2,92.3M35,97.13a1.93,1.93,0,1,1-1.93-1.93A1.93,1.93,0,0,1,35,97.13m1-4.82a1.93,1.93,0,1,1-1.93,1.93A1.93,1.93,0,0,1,36,92.3m4.82,4.82a1.93,1.93,0,1,1-1.93-1.93,1.93,1.93,0,0,1,1.93,1.93m1-4.82a1.93,1.93,0,1,1-1.93,1.93,1.93,1.93,0,0,1,1.93-1.93m4.82,4.82a1.93,1.93,0,1,1-1.93-1.93,1.93,1.93,0,0,1,1.93,1.93m1-4.82a1.93,1.93,0,1,1-1.93,1.93,1.93,1.93,0,0,1,1.93-1.93m4.82,4.82a1.93,1.93,0,1,1-1.93-1.93,1.93,1.93,0,0,1,1.93,1.93m1-4.82a1.93,1.93,0,1,1-1.93,1.93,1.93,1.93,0,0,1,1.93-1.93m4.82,4.82a1.93,1.93,0,1,1-1.93-1.93,1.93,1.93,0,0,1,1.93,1.93m1-4.82a1.93,1.93,0,1,1-1.93,1.93,1.93,1.93,0,0,1,1.93-1.93M62,89.41a1.93,1.93,0,1,1-1.93,1.93A1.93,1.93,0,0,1,62,89.41m-1.93-3.86A1.93,1.93,0,1,1,62,87.48a1.93,1.93,0,0,1-1.93-1.93m4.82-4.82A1.93,1.93,0,1,1,63,82.66a1.93,1.93,0,0,1,1.93-1.93m1.93,7.71a1.93,1.93,0,1,1-1.93-1.93,1.93,1.93,0,0,1,1.93,1.93m0,5.79a1.93,1.93,0,1,1-1.93-1.93,1.93,1.93,0,0,1,1.93,1.93m2.89,2.89a1.93,1.93,0,1,1-1.93-1.93,1.93,1.93,0,0,1,1.93,1.93m1-4.82a1.93,1.93,0,1,1-1.93,1.93A1.93,1.93,0,0,1,70.7,92.3m4.82,4.82a1.93,1.93,0,1,1-1.93-1.93,1.93,1.93,0,0,1,1.93,1.93m1-4.82a1.93,1.93,0,1,1-1.93,1.93,1.93,1.93,0,0,1,1.93-1.93m4.82,4.82a1.93,1.93,0,1,1-1.93-1.93,1.93,1.93,0,0,1,1.93,1.93m1-4.82a1.93,1.93,0,1,1-1.93,1.93,1.93,1.93,0,0,1,1.93-1.93m4.82,4.82a1.93,1.93,0,1,1-1.93-1.93,1.93,1.93,0,0,1,1.93,1.93m1-4.82a1.93,1.93,0,1,1-1.93,1.93,1.93,1.93,0,0,1,1.93-1.93m2.89-2.89A1.93,1.93,0,1,1,89,91.34a1.93,1.93,0,0,1,1.93-1.93m2.89-2.89a1.93,1.93,0,1,1-1.93,1.93,1.93,1.93,0,0,1,1.93-1.93m2.89,2.89a1.93,1.93,0,1,1-1.93,1.93,1.93,1.93,0,0,1,1.93-1.93m4.82,4.82a1.93,1.93,0,1,1-1.93-1.93,1.93,1.93,0,0,1,1.93,1.93m2.89,2.89a1.93,1.93,0,1,1-1.93-1.93,1.93,1.93,0,0,1,1.93,1.93m1-4.82a1.93,1.93,0,1,1-1.93,1.93,1.93,1.93,0,0,1,1.93-1.93M103.49,100a1.93,1.93,0,1,1,1.93,1.93,1.93,1.93,0,0,1-1.93-1.93m-2.89,2.89a1.93,1.93,0,1,1,1.93,1.93,1.93,1.93,0,0,1-1.93-1.93M97.7,105.8a1.93,1.93,0,1,1,1.93,1.93,1.93,1.93,0,0,1-1.93-1.93m-1,1a1.93,1.93,0,1,1-1.93,1.93,1.93,1.93,0,0,1,1.93-1.93m-4.82-1a1.93,1.93,0,1,1,1.93,1.93,1.93,1.93,0,0,1-1.93-1.93M89,108.7a1.93,1.93,0,1,1,1.93,1.93A1.93,1.93,0,0,1,89,108.7m-1,1a1.93,1.93,0,1,1-1.93,1.93,1.93,1.93,0,0,1,1.93-1.93m-4.82-1a1.93,1.93,0,1,1,1.93,1.93,1.93,1.93,0,0,1-1.93-1.93m-2.89,2.89a1.93,1.93,0,1,1,1.93,1.93,1.93,1.93,0,0,1-1.93-1.93m-1,1a1.93,1.93,0,1,1-1.93,1.93,1.93,1.93,0,0,1,1.93-1.93m-4.82-1a1.93,1.93,0,1,1,1.93,1.93,1.93,1.93,0,0,1-1.93-1.93m-1,1a1.93,1.93,0,1,1-1.93,1.93,1.93,1.93,0,0,1,1.93-1.93m-4.82-1a1.93,1.93,0,1,1,1.93,1.93,1.93,1.93,0,0,1-1.93-1.93m-1,1a1.93,1.93,0,1,1-1.93,1.93,1.93,1.93,0,0,1,1.93-1.93m-4.82-1a1.93,1.93,0,1,1,1.93,1.93A1.93,1.93,0,0,1,63,111.59m-1,1a1.93,1.93,0,1,1-1.93,1.93A1.93,1.93,0,0,1,62,112.55m-2.89-2.89a1.93,1.93,0,1,1-1.93,1.93,1.93,1.93,0,0,1,1.93-1.93m-4.82-1a1.93,1.93,0,1,1,1.93,1.93,1.93,1.93,0,0,1-1.93-1.93m-1,1a1.93,1.93,0,1,1-1.93,1.93,1.93,1.93,0,0,1,1.93-1.93m-2.89-2.89a1.93,1.93,0,1,1-1.93,1.93,1.93,1.93,0,0,1,1.93-1.93m-4.82-1a1.93,1.93,0,1,1,1.93,1.93,1.93,1.93,0,0,1-1.93-1.93m-1,1a1.93,1.93,0,1,1-1.93,1.93,1.93,1.93,0,0,1,1.93-1.93m-2.89-2.89a1.93,1.93,0,1,1-1.93,1.93,1.93,1.93,0,0,1,1.93-1.93m0-1.93A1.93,1.93,0,1,1,43.7,100a1.93,1.93,0,0,1-1.93,1.93m4.82,1A1.93,1.93,0,1,1,44.66,101a1.93,1.93,0,0,1,1.93,1.93m1-1A1.93,1.93,0,1,1,49.49,100a1.93,1.93,0,0,1-1.93,1.93m4.82,1A1.93,1.93,0,1,1,50.45,101a1.93,1.93,0,0,1,1.93,1.93m1-1A1.93,1.93,0,1,1,55.27,100a1.93,1.93,0,0,1-1.93,1.93m1.93,3.86a1.93,1.93,0,1,1-1.93-1.93,1.93,1.93,0,0,1,1.93,1.93m2.89-2.89A1.93,1.93,0,1,1,56.24,101a1.93,1.93,0,0,1,1.93,1.93M61.06,100a1.93,1.93,0,1,1-1.93-1.93A1.93,1.93,0,0,1,61.06,100m1-1A1.93,1.93,0,1,1,64,97.13,1.93,1.93,0,0,1,62,99.05m2.89,2.89A1.93,1.93,0,1,1,66.84,100a1.93,1.93,0,0,1-1.93,1.93m4.82,1A1.93,1.93,0,1,1,67.81,101a1.93,1.93,0,0,1,1.93,1.93m1-1A1.93,1.93,0,1,1,72.63,100a1.93,1.93,0,0,1-1.93,1.93m4.82,1A1.93,1.93,0,1,1,73.59,101a1.93,1.93,0,0,1,1.93,1.93m1-1A1.93,1.93,0,1,1,78.41,100a1.93,1.93,0,0,1-1.93,1.93m4.82,1A1.93,1.93,0,1,1,79.38,101a1.93,1.93,0,0,1,1.93,1.93m1-1A1.93,1.93,0,1,1,84.2,100a1.93,1.93,0,0,1-1.93,1.93m-1.93,3.86a1.93,1.93,0,1,1,1.93,1.93,1.93,1.93,0,0,1-1.93-1.93m-1,1a1.93,1.93,0,1,1-1.93,1.93,1.93,1.93,0,0,1,1.93-1.93m-4.82-1a1.93,1.93,0,1,1,1.93,1.93,1.93,1.93,0,0,1-1.93-1.93m-1,1a1.93,1.93,0,1,1-1.93,1.93,1.93,1.93,0,0,1,1.93-1.93m-4.82-1a1.93,1.93,0,1,1,1.93,1.93,1.93,1.93,0,0,1-1.93-1.93m-1,1a1.93,1.93,0,1,1-1.93,1.93,1.93,1.93,0,0,1,1.93-1.93m-4.82-1a1.93,1.93,0,1,1,1.93,1.93A1.93,1.93,0,0,1,63,105.8m-1,1a1.93,1.93,0,1,1-1.93,1.93A1.93,1.93,0,0,1,62,106.77m-1.93-3.86A1.93,1.93,0,1,1,62,104.84a1.93,1.93,0,0,1-1.93-1.93m1,2.89a1.93,1.93,0,1,1-1.93-1.93,1.93,1.93,0,0,1,1.93,1.93m26-2.89A1.93,1.93,0,1,1,85.16,101a1.93,1.93,0,0,1,1.93,1.93M90,100a1.93,1.93,0,1,1-1.93-1.93A1.93,1.93,0,0,1,90,100m2.89-2.89a1.93,1.93,0,1,1-1.93-1.93,1.93,1.93,0,0,1,1.93,1.93m1-1a1.93,1.93,0,1,1,1.93-1.93,1.93,1.93,0,0,1-1.93,1.93m2.89,2.89a1.93,1.93,0,1,1,1.93-1.93,1.93,1.93,0,0,1-1.93,1.93m1,1a1.93,1.93,0,1,1,1.93,1.93A1.93,1.93,0,0,1,97.7,100m-1,1a1.93,1.93,0,1,1-1.93,1.93A1.93,1.93,0,0,1,96.73,101m-4.82-1a1.93,1.93,0,1,1,1.93,1.93A1.93,1.93,0,0,1,91.91,100M90,105.8a1.93,1.93,0,1,1-1.93-1.93A1.93,1.93,0,0,1,90,105.8m-1-2.89a1.93,1.93,0,1,1,1.93,1.93A1.93,1.93,0,0,1,89,102.91m-53-1A1.93,1.93,0,1,1,37.92,100,1.93,1.93,0,0,1,36,101.95m2.89-1A1.93,1.93,0,1,1,37,102.91,1.93,1.93,0,0,1,38.88,101m71.35-3.85a1.93,1.93,0,1,1-1.93-1.93,1.93,1.93,0,0,1,1.93,1.93m1-4.82a1.93,1.93,0,1,1-1.93,1.93,1.93,1.93,0,0,1,1.93-1.93m8.68,1a1.91,1.91,0,0,1-1.46-.69l-.59-.08a1.92,1.92,0,1,1-1.21-.16l-.25,0-.22-2.13a1.92,1.92,0,0,1-1.09-1.73,2.15,2.15,0,0,1,0-.22,9.52,9.52,0,0,1-1.23,1.21l.24,0a2,2,0,1,1-1.68,1,10.23,10.23,0,0,1-2.19.84s0,.06,0,.09a1.93,1.93,0,0,1-3.82.33c-.37,0-.74,0-1.11,0s-.58-.07-.88-.11a1.92,1.92,0,1,1-3.69-.93l-.64-.28a2,2,0,0,1-.48.07A1.93,1.93,0,0,1,97.78,89a13.22,13.22,0,0,1-2-1.72,1.93,1.93,0,0,1-.91-1.07,15.81,15.81,0,0,1-1.05-1.58h-.07A8.92,8.92,0,0,1,93,85.93c-.08.11-.17.2-.25.3a1.93,1.93,0,0,1-.91,1A8.6,8.6,0,0,1,90,88.61a1.91,1.91,0,0,1-3.36,1.1l-.35,0a1.93,1.93,0,1,1-2.42.18l-.38,0a1.9,1.9,0,0,1-1.19.42,1.92,1.92,0,0,1-1.22-.44h-.37a1.93,1.93,0,1,1-2.55,0h-.36a1.9,1.9,0,0,1-2.63,0h-.37a1.93,1.93,0,1,1-2.34,0h-.37a1.91,1.91,0,0,1-2.76,0h-.38a1.92,1.92,0,1,1-1.12-.36h0l-.2-2a1.92,1.92,0,0,1,.13-3.84c.11-.65.23-1.31.35-2A1.92,1.92,0,0,1,66.06,79L66,79a12,12,0,0,1-2.06.63,1.28,1.28,0,0,1,0,.14,1.93,1.93,0,0,1-3.82.36l-.47,0,0,.65a1.92,1.92,0,0,1,.27,3.62,10.23,10.23,0,0,1,.22,2.1v.28A1.92,1.92,0,1,1,58,90h-.36a1.93,1.93,0,1,1-3.32,1.33,1.9,1.9,0,0,1,.44-1.21l-.52,0a1.87,1.87,0,0,1-1.64.07l-.55,0a1.93,1.93,0,1,1-3.52,1.1,1.91,1.91,0,0,1,.25-.94l-2.3.12H46.4a1.9,1.9,0,0,1,.19.82,1.93,1.93,0,0,1-3.86,0,1.9,1.9,0,0,1,.1-.57l-2.07.16a1.88,1.88,0,0,1,0,.41,1.93,1.93,0,0,1-3.86,0s0-.07,0-.1L35,91.41a1.92,1.92,0,0,1-3.8.36l-2.1.22a1.92,1.92,0,0,1-3.43.38l-.57.07a1.93,1.93,0,1,1-1.8.22l-.43.05a1.92,1.92,0,0,1-1.36.56h0c.44.85.9,1.68,1.37,2.5a1.9,1.9,0,0,1,.49.83c.31.51.64,1,1,1.5h.1A1.93,1.93,0,0,1,26.34,100a1.9,1.9,0,0,1-.17.78l.29.39a1.91,1.91,0,0,1,2.34,2.92l.19.22a1.9,1.9,0,0,1,1.21-.45,1.91,1.91,0,0,1,1.39,3.24l.19.19a1.9,1.9,0,0,1,1.32-.54A1.93,1.93,0,0,1,35,108.7a1.89,1.89,0,0,1-.45,1.21l.21.19a1.91,1.91,0,0,1,1.2-.44,1.92,1.92,0,0,1,1.73,2.78l.37.29a1.91,1.91,0,0,1,.79-.17,1.93,1.93,0,0,1,1.93,1.93s0,.07,0,.1c.52.34,1.06.66,1.59,1a2,2,0,0,1,.69.4c.84.49,1.69,1,2.55,1.4a1.93,1.93,0,0,1,3.85,0,1.89,1.89,0,0,1-.73,1.47l.29.12a1.9,1.9,0,0,1,1.4-.63,1.93,1.93,0,0,1,1.93,1.93h0q1,.36,2.07.69a1.89,1.89,0,0,1-.14-.69,1.93,1.93,0,1,1,3.12,1.5l.31.08a1.9,1.9,0,0,1,1.39-.62,1.92,1.92,0,0,1,1.81,1.29c.69.12,1.37.26,2.07.36a1.92,1.92,0,0,1,3.83.27s0,.09,0,.13c.65,0,1.31,0,2,.07a2,2,0,0,1,0-.21,1.93,1.93,0,1,1,3.86,0,1.59,1.59,0,0,1,0,.21c.66,0,1.32,0,2-.07,0,0,0-.1,0-.14a1.92,1.92,0,0,1,3.83-.25c.69-.09,1.37-.22,2.05-.34a1.92,1.92,0,0,1,1.83-1.34,1.9,1.9,0,0,1,1.44.67l.32-.08a1.93,1.93,0,1,1,2.89-.78c.71-.22,1.41-.45,2.1-.7,0,0,0-.05,0-.08a1.93,1.93,0,0,1,1.93-1.93,1.91,1.91,0,0,1,1.47.7l.31-.13a1.89,1.89,0,0,1-.81-1.54,1.93,1.93,0,1,1,3.86,0s0,.08,0,.12c.78-.39,1.54-.8,2.3-1.23a1.91,1.91,0,0,1,1.37-.8c.4-.24.81-.48,1.2-.73a2.33,2.33,0,0,1,0-.25,1.93,1.93,0,0,1,1.93-1.93,1.89,1.89,0,0,1,.94.25l.31-.24a1.89,1.89,0,0,1-.28-1,1.93,1.93,0,0,1,1.93-1.93,1.91,1.91,0,0,1,1.32.55l.2-.18a1.91,1.91,0,0,1-.56-1.33,1.93,1.93,0,0,1,1.93-1.93,1.91,1.91,0,0,1,1.44.67l.19-.19a1.92,1.92,0,1,1,2.62-2.79l.17-.2a1.91,1.91,0,0,1-.56-1.33,1.93,1.93,0,0,1,1.93-1.93,1.9,1.9,0,0,1,1,.31l.22-.3a1.9,1.9,0,0,1-.27-1A1.93,1.93,0,0,1,117,98.09a2.14,2.14,0,0,1,.33,0c.22-.33.43-.66.64-1h0a1.92,1.92,0,0,1,1-1.69c.42-.73.83-1.47,1.21-2.22a2,2,0,0,1-.3,0"/>
        <path class="cls-8" d="M68.68,77.27c-.24.21-.51.39-.77.58a1.9,1.9,0,0,1,.73.19c0-.26,0-.52,0-.77"/>
        <path class="cls-8" d="M81.15,78.45v.06h.09l-.08-.05h0"/>
        <path class="cls-5" d="M81.15,78.45v.06h.45l-.45,0"/>
        <path class="cls-5" d="M114.09,98.74A1.93,1.93,0,1,1,116,96.81a1.93,1.93,0,0,1-1.93,1.93m-2.89,2.89a1.93,1.93,0,1,1,1.93-1.93,1.93,1.93,0,0,1-1.93,1.93m-2.89,2.89a1.93,1.93,0,1,1,1.93-1.93,1.93,1.93,0,0,1-1.93,1.93m-2.89,2.89a1.93,1.93,0,1,1,1.93-1.93,1.93,1.93,0,0,1-1.93,1.93m-2.89,2.89a1.93,1.93,0,1,1,1.93-1.93,1.93,1.93,0,0,1-1.93,1.93m-2.89,2.89a1.93,1.93,0,1,1,1.93-1.93,1.93,1.93,0,0,1-1.93,1.93m-2.89,2.89a1.93,1.93,0,1,1,1.93-1.93,1.93,1.93,0,0,1-1.93,1.93m-4.82-4.82a1.93,1.93,0,1,1,1.93,1.93,1.93,1.93,0,0,1-1.93-1.93m-1,4.82a1.93,1.93,0,1,1,1.93-1.93,1.93,1.93,0,0,1-1.93,1.93M88.06,119A1.93,1.93,0,1,1,90,117.06,1.93,1.93,0,0,1,88.06,119m-4.82-4.82a1.93,1.93,0,1,1,1.93,1.93,1.93,1.93,0,0,1-1.93-1.93m-1,4.82a1.93,1.93,0,1,1,1.93-1.93A1.93,1.93,0,0,1,82.27,119m-2.89,2.89A1.93,1.93,0,1,1,81.31,120a1.93,1.93,0,0,1-1.93,1.93m-4.82-4.82A1.93,1.93,0,1,1,76.48,119a1.93,1.93,0,0,1-1.93-1.93m-1,4.82A1.93,1.93,0,1,1,75.52,120a1.93,1.93,0,0,1-1.93,1.93m-4.82-4.82A1.93,1.93,0,1,1,70.7,119a1.93,1.93,0,0,1-1.93-1.93m-1,4.82A1.93,1.93,0,1,1,69.74,120a1.93,1.93,0,0,1-1.93,1.93M63,117.06A1.93,1.93,0,1,1,64.91,119,1.93,1.93,0,0,1,63,117.06m-1,4.82A1.93,1.93,0,1,1,64,120,1.93,1.93,0,0,1,62,121.88m-4.82-4.82A1.93,1.93,0,1,1,59.13,119a1.93,1.93,0,0,1-1.93-1.93m-2.89-2.89a1.93,1.93,0,1,1,1.93,1.93,1.93,1.93,0,0,1-1.93-1.93m-1,4.82a1.93,1.93,0,1,1,1.93-1.93A1.93,1.93,0,0,1,53.34,119m-4.82-4.82a1.93,1.93,0,1,1,1.93,1.93,1.93,1.93,0,0,1-1.93-1.93m-2.89-2.89a1.93,1.93,0,1,1,1.93,1.93,1.93,1.93,0,0,1-1.93-1.93m-1,4.82a1.93,1.93,0,1,1,1.93-1.93,1.93,1.93,0,0,1-1.93,1.93m-4.82-4.82a1.93,1.93,0,1,1,1.93,1.93,1.93,1.93,0,0,1-1.93-1.93M37,108.38a1.93,1.93,0,1,1,1.93,1.93A1.93,1.93,0,0,1,37,108.38m-2.89-2.89A1.93,1.93,0,1,1,36,107.42a1.93,1.93,0,0,1-1.93-1.93m-2.89-2.89a1.93,1.93,0,1,1,1.93,1.93,1.93,1.93,0,0,1-1.93-1.93m-2.89-2.89a1.93,1.93,0,1,1,1.93,1.93,1.93,1.93,0,0,1-1.93-1.93m-2.89-2.89a1.93,1.93,0,1,1,1.93,1.93,1.93,1.93,0,0,1-1.93-1.93M30.2,92a1.93,1.93,0,1,1-1.93,1.93A1.93,1.93,0,0,1,30.2,92M35,96.81a1.93,1.93,0,1,1-1.93-1.93A1.93,1.93,0,0,1,35,96.81M36,92a1.93,1.93,0,1,1-1.93,1.93A1.93,1.93,0,0,1,36,92m4.82,4.82a1.93,1.93,0,1,1-1.93-1.93,1.93,1.93,0,0,1,1.93,1.93m1-4.82a1.93,1.93,0,1,1-1.93,1.93A1.93,1.93,0,0,1,41.77,92m4.82,4.82a1.93,1.93,0,1,1-1.93-1.93,1.93,1.93,0,0,1,1.93,1.93m1-4.82a1.93,1.93,0,1,1-1.93,1.93A1.93,1.93,0,0,1,47.56,92m4.82,4.82a1.93,1.93,0,1,1-1.93-1.93,1.93,1.93,0,0,1,1.93,1.93m1-4.82a1.93,1.93,0,1,1-1.93,1.93A1.93,1.93,0,0,1,53.34,92m4.82,4.82a1.93,1.93,0,1,1-1.93-1.93,1.93,1.93,0,0,1,1.93,1.93m1-4.82a1.93,1.93,0,1,1-1.93,1.93A1.93,1.93,0,0,1,59.13,92M62,89.1A1.93,1.93,0,1,1,60.09,91,1.93,1.93,0,0,1,62,89.1m-1.93-3.86A1.93,1.93,0,1,1,62,87.17a1.93,1.93,0,0,1-1.93-1.93m4.82-4.82A1.93,1.93,0,1,1,63,82.35a1.93,1.93,0,0,1,1.93-1.93m1.93,7.71a1.93,1.93,0,1,1-1.93-1.93,1.93,1.93,0,0,1,1.93,1.93m0,5.78A1.93,1.93,0,1,1,64.91,92a1.93,1.93,0,0,1,1.93,1.93m2.89,2.89a1.93,1.93,0,1,1-1.93-1.93,1.93,1.93,0,0,1,1.93,1.93m1-4.82a1.93,1.93,0,1,1-1.93,1.93A1.93,1.93,0,0,1,70.7,92m4.82,4.82a1.93,1.93,0,1,1-1.93-1.93,1.93,1.93,0,0,1,1.93,1.93m1-4.82a1.93,1.93,0,1,1-1.93,1.93A1.93,1.93,0,0,1,76.48,92m4.82,4.82a1.93,1.93,0,1,1-1.93-1.93,1.93,1.93,0,0,1,1.93,1.93m1-4.82a1.93,1.93,0,1,1-1.93,1.93A1.93,1.93,0,0,1,82.27,92m4.82,4.82a1.93,1.93,0,1,1-1.93-1.93,1.93,1.93,0,0,1,1.93,1.93m1-4.82a1.93,1.93,0,1,1-1.93,1.93A1.93,1.93,0,0,1,88.06,92m2.89-2.89A1.93,1.93,0,1,1,89,91a1.93,1.93,0,0,1,1.93-1.93m2.89-2.89a1.93,1.93,0,1,1-1.93,1.93,1.93,1.93,0,0,1,1.93-1.93m2.89,2.89A1.93,1.93,0,1,1,94.81,91a1.93,1.93,0,0,1,1.93-1.93m4.82,4.82A1.93,1.93,0,1,1,99.63,92a1.93,1.93,0,0,1,1.93,1.93m2.89,2.89a1.93,1.93,0,1,1-1.93-1.93,1.93,1.93,0,0,1,1.93,1.93m1-4.82a1.93,1.93,0,1,1-1.93,1.93A1.93,1.93,0,0,1,105.41,92m-1.93,7.72a1.93,1.93,0,1,1,1.93,1.93,1.93,1.93,0,0,1-1.93-1.93m-2.89,2.89a1.93,1.93,0,1,1,1.93,1.93,1.93,1.93,0,0,1-1.93-1.93m-2.89,2.89a1.93,1.93,0,1,1,1.93,1.93,1.93,1.93,0,0,1-1.93-1.93m-1,1a1.93,1.93,0,1,1-1.93,1.93,1.93,1.93,0,0,1,1.93-1.93m-4.82-1a1.93,1.93,0,1,1,1.93,1.93,1.93,1.93,0,0,1-1.93-1.93M89,108.38a1.93,1.93,0,1,1,1.93,1.93A1.93,1.93,0,0,1,89,108.38m-1,1a1.93,1.93,0,1,1-1.93,1.93,1.93,1.93,0,0,1,1.93-1.93m-4.82-1a1.93,1.93,0,1,1,1.93,1.93,1.93,1.93,0,0,1-1.93-1.93m-2.89,2.89a1.93,1.93,0,1,1,1.93,1.93,1.93,1.93,0,0,1-1.93-1.93m-1,1a1.93,1.93,0,1,1-1.93,1.93,1.93,1.93,0,0,1,1.93-1.93m-4.82-1a1.93,1.93,0,1,1,1.93,1.93,1.93,1.93,0,0,1-1.93-1.93m-1,1a1.93,1.93,0,1,1-1.93,1.93,1.93,1.93,0,0,1,1.93-1.93m-4.82-1a1.93,1.93,0,1,1,1.93,1.93,1.93,1.93,0,0,1-1.93-1.93m-1,1a1.93,1.93,0,1,1-1.93,1.93,1.93,1.93,0,0,1,1.93-1.93m-4.82-1a1.93,1.93,0,1,1,1.93,1.93A1.93,1.93,0,0,1,63,111.28m-1,1a1.93,1.93,0,1,1-1.93,1.93A1.93,1.93,0,0,1,62,112.24m-2.89-2.89a1.93,1.93,0,1,1-1.93,1.93,1.93,1.93,0,0,1,1.93-1.93m-4.82-1a1.93,1.93,0,1,1,1.93,1.93,1.93,1.93,0,0,1-1.93-1.93m-1,1a1.93,1.93,0,1,1-1.93,1.93,1.93,1.93,0,0,1,1.93-1.93m-2.89-2.89a1.93,1.93,0,1,1-1.93,1.93,1.93,1.93,0,0,1,1.93-1.93m-4.82-1a1.93,1.93,0,1,1,1.93,1.93,1.93,1.93,0,0,1-1.93-1.93m-1,1a1.93,1.93,0,1,1-1.93,1.93,1.93,1.93,0,0,1,1.93-1.93m-2.89-2.89a1.93,1.93,0,1,1-1.93,1.93,1.93,1.93,0,0,1,1.93-1.93m0-1.93a1.93,1.93,0,1,1,1.93-1.93,1.93,1.93,0,0,1-1.93,1.93m4.82,1a1.93,1.93,0,1,1-1.93-1.93,1.93,1.93,0,0,1,1.93,1.93m1-1a1.93,1.93,0,1,1,1.93-1.93,1.93,1.93,0,0,1-1.93,1.93m4.82,1a1.93,1.93,0,1,1-1.93-1.93,1.93,1.93,0,0,1,1.93,1.93m1-1a1.93,1.93,0,1,1,1.93-1.93,1.93,1.93,0,0,1-1.93,1.93m1.93,3.86a1.93,1.93,0,1,1-1.93-1.93,1.93,1.93,0,0,1,1.93,1.93m2.89-2.89a1.93,1.93,0,1,1-1.93-1.93,1.93,1.93,0,0,1,1.93,1.93m2.89-2.89a1.93,1.93,0,1,1-1.93-1.93,1.93,1.93,0,0,1,1.93,1.93m1-1A1.93,1.93,0,1,1,64,96.81,1.93,1.93,0,0,1,62,98.74m2.89,2.89a1.93,1.93,0,1,1,1.93-1.93,1.93,1.93,0,0,1-1.93,1.93m4.82,1a1.93,1.93,0,1,1-1.93-1.93,1.93,1.93,0,0,1,1.93,1.93m1-1a1.93,1.93,0,1,1,1.93-1.93,1.93,1.93,0,0,1-1.93,1.93m4.82,1a1.93,1.93,0,1,1-1.93-1.93,1.93,1.93,0,0,1,1.93,1.93m1-1a1.93,1.93,0,1,1,1.93-1.93,1.93,1.93,0,0,1-1.93,1.93m4.82,1a1.93,1.93,0,1,1-1.93-1.93,1.93,1.93,0,0,1,1.93,1.93m1-1a1.93,1.93,0,1,1,1.93-1.93,1.93,1.93,0,0,1-1.93,1.93m-1.93,3.86a1.93,1.93,0,1,1,1.93,1.93,1.93,1.93,0,0,1-1.93-1.93m-1,1a1.93,1.93,0,1,1-1.93,1.93,1.93,1.93,0,0,1,1.93-1.93m-4.82-1a1.93,1.93,0,1,1,1.93,1.93,1.93,1.93,0,0,1-1.93-1.93m-1,1a1.93,1.93,0,1,1-1.93,1.93,1.93,1.93,0,0,1,1.93-1.93m-4.82-1a1.93,1.93,0,1,1,1.93,1.93,1.93,1.93,0,0,1-1.93-1.93m-1,1a1.93,1.93,0,1,1-1.93,1.93,1.93,1.93,0,0,1,1.93-1.93m-4.82-1a1.93,1.93,0,1,1,1.93,1.93A1.93,1.93,0,0,1,63,105.49m-1,1a1.93,1.93,0,1,1-1.93,1.93A1.93,1.93,0,0,1,62,106.46m-1.93-3.86A1.93,1.93,0,1,1,62,104.53a1.93,1.93,0,0,1-1.93-1.93m1,2.89a1.93,1.93,0,1,1-1.93-1.93,1.93,1.93,0,0,1,1.93,1.93m26-2.89a1.93,1.93,0,1,1-1.93-1.93,1.93,1.93,0,0,1,1.93,1.93M90,99.71a1.93,1.93,0,1,1-1.93-1.93A1.93,1.93,0,0,1,90,99.71m2.89-2.89a1.93,1.93,0,1,1-1.93-1.93,1.93,1.93,0,0,1,1.93,1.93m1-1a1.93,1.93,0,1,1,1.93-1.93,1.93,1.93,0,0,1-1.93,1.93m2.89,2.89a1.93,1.93,0,1,1,1.93-1.93,1.93,1.93,0,0,1-1.93,1.93m1,1a1.93,1.93,0,1,1,1.93,1.93,1.93,1.93,0,0,1-1.93-1.93m-1,1a1.93,1.93,0,1,1-1.93,1.93,1.93,1.93,0,0,1,1.93-1.93m-4.82-1a1.93,1.93,0,1,1,1.93,1.93,1.93,1.93,0,0,1-1.93-1.93M90,105.49a1.93,1.93,0,1,1-1.93-1.93A1.93,1.93,0,0,1,90,105.49m-1-2.89a1.93,1.93,0,1,1,1.93,1.93A1.93,1.93,0,0,1,89,102.6m-53-1a1.93,1.93,0,1,1,1.93-1.93A1.93,1.93,0,0,1,36,101.63m2.89-1A1.93,1.93,0,1,1,37,102.6a1.93,1.93,0,0,1,1.93-1.93m71.35-3.86a1.93,1.93,0,1,1-1.93-1.93,1.93,1.93,0,0,1,1.93,1.93m1-4.82a1.93,1.93,0,1,1-1.93,1.93A1.93,1.93,0,0,1,111.2,92m8.68,1a1.92,1.92,0,0,1-1.06-.32l-.46-.06a1.93,1.93,0,1,1-2-.47l-.24-2.26a1.91,1.91,0,0,1-1-1.6,9.41,9.41,0,0,1-.85.87A1.92,1.92,0,1,1,112.16,91a1.89,1.89,0,0,1,.09-.54,10.14,10.14,0,0,1-2,.77,1.92,1.92,0,0,1-3.71.43c-.39,0-.79,0-1.19-.05s-.62-.08-.93-.12a1.92,1.92,0,1,1-3.72-1c-.38-.15-.76-.31-1.13-.5A1.92,1.92,0,0,1,98,89.11a13.36,13.36,0,0,1-3-2.87,15.76,15.76,0,0,1-1.13-1.7,8.94,8.94,0,0,1-.82,1.4,9.06,9.06,0,0,1-3.1,2.71,1.91,1.91,0,0,1-3,1l-.31.06a1.93,1.93,0,1,1-3,.23h-.69a1.78,1.78,0,0,1-1.25,0H81A1.93,1.93,0,1,1,77.45,91a1.91,1.91,0,0,1,.39-1.15h-.52a1.93,1.93,0,0,1-.84.2,1.91,1.91,0,0,1-.88-.22h-.5a1.93,1.93,0,1,1-3,0h-.45a1.88,1.88,0,0,1-2,0h-.44A1.91,1.91,0,0,1,69.74,91a1.93,1.93,0,1,1-1.93-1.93h0l-.2-1.95a1.92,1.92,0,0,1,.19-3.84h0c.11-.66.24-1.31.36-2a1.84,1.84,0,0,1-.39,0,1.93,1.93,0,0,1-1.93-1.93,2,2,0,0,1,.06-.44,12.25,12.25,0,0,1-2,.62,1.92,1.92,0,0,1-3.71.49l-.56,0c0,.11,0,.23,0,.34a1.92,1.92,0,0,1,.21,3.63,11.6,11.6,0,0,1,.27,2.36,1.91,1.91,0,0,1,0,3.3v.12h-.26a1.9,1.9,0,0,1-.7.14,2,2,0,0,1-.55-.09l-.72,0a1.93,1.93,0,1,1-3.56,1,1.88,1.88,0,0,1,.23-.89l-2.33.1a1.93,1.93,0,1,1-3.57.17l-2.12.11a1.86,1.86,0,0,1,.08.51,1.93,1.93,0,0,1-3.86,0,2,2,0,0,1,0-.25l-2,.15s0,.07,0,.1a1.92,1.92,0,0,1-3.84.21l-2,.18a1.93,1.93,0,0,1-3.67.35L29,92a1.92,1.92,0,0,1-3.05.34l-.33,0a1.93,1.93,0,1,1-2.64.32l-.61.08a1.93,1.93,0,0,1-.8.18l-.21,0c.39.77.82,1.52,1.24,2.27a1.9,1.9,0,0,1,.88,1.52c.22.37.46.72.69,1.08a1.83,1.83,0,0,1,.29,0,1.93,1.93,0,0,1,1.93,1.93,1.89,1.89,0,0,1-.27,1l.22.3a1.92,1.92,0,0,1,2.38,3l.15.18A1.93,1.93,0,1,1,31.44,107l.18.19a1.92,1.92,0,1,1,2.81,2.62l.18.16a1.92,1.92,0,0,1,3,2.41l.26.21a1.89,1.89,0,0,1,1-.31,1.91,1.91,0,0,1,1.89,2.32l.91.58h.1a1.92,1.92,0,0,1,1.72,1.07c.72.41,1.44.8,2.18,1.18a1.86,1.86,0,0,1,0-.32,1.93,1.93,0,1,1,2.87,1.68l.36.15A1.92,1.92,0,0,1,52.38,120a2,2,0,0,1,0,.31c.75.27,1.51.52,2.28.76a1.93,1.93,0,1,1,2.44.67l.45.11a1.91,1.91,0,0,1,3.5.74c.66.12,1.3.25,2,.34,0,0,0,0,0,0a1.93,1.93,0,0,1,3.86,0,2.07,2.07,0,0,1-.05.45c.68,0,1.37,0,2.05.07a1.89,1.89,0,0,1-.07-.52,1.93,1.93,0,0,1,3.86,0,1.9,1.9,0,0,1-.08.53c.69,0,1.38,0,2.06-.07a2,2,0,0,1-.06-.46,1.93,1.93,0,0,1,3.86,0s0,0,0,.06c.66-.09,1.31-.21,2-.33a1.91,1.91,0,0,1,3.53-.73l.5-.13a1.94,1.94,0,1,1,2.28-.6c.8-.24,1.59-.51,2.37-.79a2,2,0,0,1,0-.38,1.92,1.92,0,0,1,3.57-1l.43-.18a2,2,0,1,1,2.69-1.28c.72-.36,1.43-.73,2.12-1.12a1.83,1.83,0,0,1,2.11-1.23l.74-.46a1.9,1.9,0,0,1-.08-.54,1.93,1.93,0,0,1,3.09-1.54l.21-.17a1.92,1.92,0,0,1,3-2.4l.2-.18a1.92,1.92,0,1,1,2.78-2.58l.23-.23a1.92,1.92,0,1,1,2.58-2.78l.18-.2a1.92,1.92,0,0,1,2.4-3l.17-.23a1.89,1.89,0,0,1-.38-1.14A1.93,1.93,0,0,1,117,97.78a1.85,1.85,0,0,1,.51.07l.48-.76a2.14,2.14,0,0,1,0-.27,1.92,1.92,0,0,1,1.24-1.8c.4-.71.8-1.41,1.17-2.14a1.94,1.94,0,0,1-.48.08"/>
        <path class="cls-5" d="M68.68,77.27c-.13.12-.28.21-.42.32a1.83,1.83,0,0,1,.4.15c0-.16,0-.31,0-.47"/>
        <path class="cls-9" d="M47.44,87.09A371.49,371.49,0,0,0,7.52,91.75l-4.22.72L0,90.71C1,84,5.84,73.63,6.78,67s1.9-13.37,2.85-20.06l.4-2.82h2.69c5.75,0,15.06-3.22,20.81-3.22l1.53,4.57-.37,3.67-.63,6.31h.41c5.29-.14,9-1.62,14.25-1.72h.67l2.69-.05h0l7.27-.08a21.64,21.64,0,0,1,6.13.64A8.12,8.12,0,0,1,68.72,56V53.48h3.14c3,0,5.92,0,8.88,0a19.89,19.89,0,0,1,5.59.66,8.42,8.42,0,0,1,4.4,3.39,10.06,10.06,0,0,1,1.09,2.07,12,12,0,0,1,.89-1.6c2.24-3.37,5.71-4.68,9.5-4.59,3.62.09,5.33,1.56,7.76,4.35-.34-3.18-.67-5.06-1-8.24l-.4-3.7L110,41.26c5.16,0,13.85,3.24,19,3.25h2.67l.41,2.81c.24,1.67,4.13,6.26,4.36,7.94l-6.34,4.23-7.31-.62c.08.69,0,0,.12.74.13,1.06.8.58.93,1.64l5.83.45,2.53.2.33,2.67c.2,1.64,4.16,6.58,4.39,8.21l-4.22,3.12-7.68-1c.07.57.33.18.4.75.13,1.08.25,1,.37,2.05,2.85.39,5.69.82,8.54,1.25l2.29.35.35,2.43c.25,1.73,4.5,7.23,4.76,9l-2.12,2-5.48-.94Q125.6,90.28,117,89.14l-2.44-.33-.27-2.59L114.07,84l-.08.11c-2.39,3.48-6.16,4.41-10,4.08A13.43,13.43,0,0,1,94,83a15.23,15.23,0,0,1-1.09-1.63,8.31,8.31,0,0,1-.79,1.34A8.53,8.53,0,0,1,87.36,86a22,22,0,0,1-6.12.51c-3.12-.08-6.23-.11-9.35-.14l-3.88,0-.33-3.29c0-2.91,1.11-5.8,1.1-8.71A9.32,9.32,0,0,1,66.19,76a17.78,17.78,0,0,1-6.08,1.12q0,.8-.05,1.59c-.05,1.56.54,3,.5,4.52l0,3.26-3.65.14c-2,.06-4,.15-6,.26l-3.45.18Z"/>
        <path class="cls-10" d="M126,55l.1.81.28,2.29,5.13.39,3.47.27.45,3.56c.21,1.63.45,3.25.69,4.88l.8,5.58-5.45-.54-3.41-.33c0,.11,0,.23,0,.34q.15,1.19.29,2.39c2.66.36,5.32.75,8,1.14l3.14.46.49,3.23c.26,1.73.5,3.46.77,5.18l1,6.06-5.88-1q-8.78-1.46-17.6-2.6l-3.35-.44-.35-3.28c-2.63,2.36-6.12,3-9.7,2.74a15,15,0,0,1-11-5.59l-.25-.32h0A9.85,9.85,0,0,1,88.12,84a24.05,24.05,0,0,1-6.6.54c-3.2-.08-6.41-.11-9.62-.14l-4.23,0,0-4.36q0-3.32,0-6.64a11,11,0,0,1-1.19.58,17.89,17.89,0,0,1-5.63,1.15c0,.19,0,.39,0,.58-.05,1.56-.1,3.12-.15,4.68l-.1,4.19-4.06.12c-2,.06-4.1.15-6.15.26l-3.9.2c-6.59.44-13.17,1-19.74,1.71-7,.78-14,1.77-20.9,2.92l-5.8,1,.88-6q1.48-10,2.93-20T6.75,44.62l.55-3.76H33.53L33,45.75q-.26,2.53-.52,5.06,7.77-.2,15.54-.35l4.61-.08v0L59,50.32a23.71,23.71,0,0,1,6.61.68,9.31,9.31,0,0,1,2,.81V50.26h4.31c3,0,6.1,0,9.15,0a21.75,21.75,0,0,1,6,.71,9.69,9.69,0,0,1,5.09,3.8l.31.46c2.51-3.65,6.43-5.13,10.67-5a14,14,0,0,1,8.1,2.64q-.36-3.35-.73-6.7L110,41.26h4.81l15.93,0h3.67l.56,3.74c.25,1.68.5,3.35.74,5l.74,5.19-5.08-.13L126,55"/>
        <path class="cls-4" d="M111.9,54.85l.22.22-.22-.22m-.59-.53.47.42-.47-.42m-.48-.39.23.18-.23-.18M109,52.79l.65.36-.65-.36m-.43-.22.26.13-.26-.13m-3.64-1.07.26,0ZM46.74,84A394.07,394.07,0,0,0,5.63,88.66l-4.35.72.43-.07.56-3.84c1-6.68,2-13.34,2.93-20S7,52,8,45.34l.42-2.95H32.29L32,45.63q-.33,3.16-.65,6.31h.33l-.06.47H32c5.4-.14,10.78-.28,16.19-.38h.68l2.75-.05h0L59,51.88a22.79,22.79,0,0,1,6.3.62,8.17,8.17,0,0,1,3.24,1.86l0-.48,0,0V51.83h3.17c3,0,6.1.06,9.12.08a20.78,20.78,0,0,1,5.71.66A8.55,8.55,0,0,1,91.15,56a9.24,9.24,0,0,1,1.07,2,10.44,10.44,0,0,1,.9-1.49,11,11,0,0,1,9.72-4.76,12.57,12.57,0,0,1,9.4,4.31l-.1-1c.17.17.34.35.5.53q-.52-4.77-1-9.54l-.36-3.2h3.15l15.8,0L133,43l.42,2.81c.25,1.67.5,3.35.73,5l.47,3.32L131.37,54l-6.61-.16-.24.28,0,.19c.09.69.17,1.39.25,2.08l.39,3.19c2,.14,3.87.3,5.85.46l2.58.21.34,2.67c.21,1.64.45,3.27.68,4.9l.4,3.65-3.43-.34-4.74-.45-.25.28-.1.23q.11.85.21,1.71c.14,1.08.26,2.16.39,3.23,2.91.39,5.8.74,8.71,1.17l2.34.35.36,2.57c.26,1.73.5,3.46.77,5.19l.61,3.87L136,88.66q-8.8-1.46-17.64-2.61l-2.51-.33-.28-2.59-.24-2.25-.08.11c-2.46,3.48-6.35,4.41-10.34,4.08A14,14,0,0,1,94.7,79.89a15,15,0,0,1-1.12-1.63,8.49,8.49,0,0,1-.81,1.34,8.78,8.78,0,0,1-4.91,3.35,23.31,23.31,0,0,1-6.31.51c-3.21-.08-6.42-.11-9.63-.14l-3.17,0V80q0-4.37,0-8.73A9.6,9.6,0,0,1,66,72.93a18.73,18.73,0,0,1-6.27,1.12c0,.53,0,1.06-.05,1.6-.05,1.56-.1,3.13-.14,4.69l-.08,3.14-3,.09c-2.06.06-4.11.15-6.16.26L46.74,84Z"/>
        <path class="cls-11" d="M126.82,70.7l.22,1.71q.2,1.61.39,3.23c2.93.39,5.86.82,8.79,1.25l2.36.35.37,2.43c.26,1.73.5,3.46.77,5.19l.72,4.54-.71-.12-.61-3.87c-.27-1.73-.51-3.46-.77-5.19L138,77.79l-2.34-.35c-2.9-.43-5.81-.86-8.72-1.25q-.19-1.62-.39-3.23-.11-.85-.21-1.71Zm-2.05-16.83L125,56q.2,1.59.4,3.19l6,.45,2.6.21.34,2.67c.21,1.64.46,3.27.69,4.9l.6,4.19-.66-.06-.51-3.57c-.23-1.63-.48-3.26-.69-4.9l-.34-2.67-2.58-.2-6-.45q-.19-1.59-.39-3.19c-.08-.69-.17-1.39-.25-2.08ZM111.24,42.92l-.06-.55h3.61l15.93,0h2.75l.42,2.81c.25,1.67.5,3.35.74,5l.55,3.89h-.65l-.47-3.32c-.24-1.67-.49-3.35-.74-5l-.42-2.8h-2.73l-15.8,0Zm-42.59,9v-.55h3.24c3,0,6.1,0,9.14,0a21.07,21.07,0,0,1,5.75.66,8.63,8.63,0,0,1,4.53,3.39,9.87,9.87,0,0,1,1.12,2.07,11.91,11.91,0,0,1,.92-1.6c2.31-3.37,5.88-4.68,9.79-4.59a12.72,12.72,0,0,1,9,3.72l.5.53-.38.55a12.54,12.54,0,0,0-9.42-4.26c-3.87-.09-7.42,1.22-9.71,4.59a12.13,12.13,0,0,0-.91,1.59A10,10,0,0,0,91.1,56a8.56,8.56,0,0,0-4.49-3.39A20.71,20.71,0,0,0,80.9,52c-3,0-6,0-9.07,0Zm-37.34,0h.42q8.16-.21,16.33-.37h.69l2.77-.05h0L59,51.43a23,23,0,0,1,6.32.64,8.62,8.62,0,0,1,3.33,1.85v.56a8.5,8.5,0,0,0-3.33-1.86A22.61,22.61,0,0,0,59.06,52l-7.43.08h0l-2.75.05H48.2q-8.1.15-16.2.37h-.42ZM1.89,89.28l-.61.1.66-4.49q1.48-10,2.93-20T7.81,44.78L8.22,42H32.34l-.06.55H8.67l-.41,2.82q-1.45,10-2.91,20.06t-2.91,20Z"/>
        <path class="cls-10" d="M31.81,55.24Q40,55,48.12,54.88c-.08,1.47-.17,2.94-.25,4.41q-5.27.14-10.54.31c-.16,2-.33,4.09-.49,6.13,2.87-.13,5.75-.26,8.62-.37-.08,1.48-.17,3-.25,4.42-2.91.15-5.81.29-8.71.45q-.28,3.27-.53,6.53,5.49-.38,11-.68-.12,2.31-.23,4.6Q38,81.24,29.31,82c.42-4.46.83-8.93,1.25-13.39s.83-8.93,1.25-13.4m25.24,3.65c-.06,2.52-.16,5-.23,7.57l1.87,0c1.68,0,2.78-.41,3.26-1.13a5,5,0,0,0,.75-2.77,4.26,4.26,0,0,0-.49-2.31,2.41,2.41,0,0,0-1.26-1.12,6.31,6.31,0,0,0-2-.23l-1.86,0m-5.72-4.06L59,54.74a20,20,0,0,1,5.43.52,5.79,5.79,0,0,1,3.24,2.5A8.44,8.44,0,0,1,69,62.61a9,9,0,0,1-1.1,4.61,6.43,6.43,0,0,1-3.06,2.64,17.5,17.5,0,0,1-6,.91l-2.16,0c-.07,1.57-.12,3.14-.17,4.72s-.11,3.15-.15,4.72c-2.08.06-4.17.15-6.23.26q.32-6.42.59-12.84t.61-12.85m26.54,20.9c1,0,2,0,3,.05q4.24.11,4.13-3.23A3.22,3.22,0,0,0,83.9,69.9a5.47,5.47,0,0,0-3.16-.82l-3,0c0,2.23.07,4.46.11,6.69M77.7,64.93h1.95c1.92,0,3.13-.27,3.62-.9a3.47,3.47,0,0,0,.67-2.21,3.2,3.2,0,0,0-.79-2.06c-.52-.62-1.58-.93-3.21-.94l-2.34,0c0,2,.06,4.08.1,6.12M71.88,54.69c3,0,6.09,0,9.13,0a18.26,18.26,0,0,1,4.87.53,5.42,5.42,0,0,1,2.84,2.17A7.63,7.63,0,0,1,90,61.56c.13,2.87-1.1,4.67-3.7,5.41a6.72,6.72,0,0,1,5,6.45,6.27,6.27,0,0,1-1.08,4.16,5.54,5.54,0,0,1-3.16,2.15,20.31,20.31,0,0,1-5.43.41c-3.25-.08-6.46-.11-9.68-.14,0-4.22,0-8.43,0-12.65s0-8.44,0-12.65m42.91-9,15.93,0c.25,1.67.5,3.33.74,5-3.45-.08-6.89-.17-10.34-.24.24,2,.48,3.94.72,5.9s.49,3.93.72,5.9c2.87.19,5.72.41,8.62.63.21,1.65.46,3.3.7,5-2.92-.29-5.83-.56-8.73-.81.21,1.93.47,3.86.71,5.79s.46,3.85.69,5.78c3.73.46,7.47,1,11.23,1.55.26,1.74.5,3.48.78,5.22q-8.94-1.49-17.74-2.63-1-9.27-2-18.54t-2-18.54m-7,22.73q-.46-5.37-1.45-7.18a3.33,3.33,0,0,0-2.89-1.88,2.52,2.52,0,0,0-2.6,1.68c-.47,1.16-.61,3.49-.37,7s.7,5.79,1.35,7a3.54,3.54,0,0,0,3,2,2.49,2.49,0,0,0,2.71-1.53c.5-1.13.57-3.5.26-7.11m6.44.43c.47,4.65,0,8.06-1.54,10.19s-4,3-7.48,2.73a10.73,10.73,0,0,1-8-4A12.7,12.7,0,0,1,95,73.52a23.66,23.66,0,0,1-.95-5.77c-.23-4.42.41-7.72,1.91-9.9s3.85-3.26,7.09-3.19a9.51,9.51,0,0,1,7.59,3.65A14.49,14.49,0,0,1,113,62.73a27.67,27.67,0,0,1,1.24,6.12M11,45.27H28.76c-.65,6.21-1.27,12.43-1.91,18.63s-1.28,12.41-1.92,18.62c-2.12.25-4.24.49-6.34.78q1-8.22,1.92-16.43c.63-5.48,1.29-11,1.92-16.44L16,50.57Q14.89,59,13.79,67.45T11.54,84.32L5.12,85.39q1.48-10,2.93-20.05T11,45.27"/>
        <polygon class="cls-4" points="104.74 84.22 103.52 70.98 105.39 70.81 106.61 84.05 104.74 84.22"/>
        <path class="cls-10" d="M104.12,67.49a.76.76,0,0,1,.7.65.56.56,0,0,1-.62.58.73.73,0,0,1-.69-.65.54.54,0,0,1,.6-.58"/>
        <path class="cls-10" d="M104,65.5a.75.75,0,0,1,.7.65.55.55,0,0,1-.6.59.74.74,0,0,1-.68-.65.53.53,0,0,1,.59-.58"/>
        <path class="cls-10" d="M103.66,61.57a.7.7,0,0,1,.67.62.51.51,0,0,1-.58.56.71.71,0,0,1-.69-.62.53.53,0,0,1,.59-.57"/>
        <path class="cls-10" d="M103.8,63.51a.75.75,0,0,1,.7.64.54.54,0,0,1-.59.58.73.73,0,0,1-.7-.64.54.54,0,0,1,.59-.58"/>
        <path class="cls-10" d="M103.53,59.86a.6.6,0,0,1,.62.46c0,.24-.24.42-.55.41s-.62-.22-.63-.46.24-.43.57-.42"/>
        <path class="cls-10" d="M106.21,67.61a.68.68,0,0,1,.58.65.48.48,0,0,1-.49.58.66.66,0,0,1-.58-.64.49.49,0,0,1,.49-.59"/>
        <path class="cls-10" d="M102,67.39a.51.51,0,0,0-.5.59.67.67,0,0,0,.59.63.5.5,0,0,0,.5-.58.69.69,0,0,0-.59-.64"/>
        <path class="cls-10" d="M106,65.61a.72.72,0,0,1,.61.65.51.51,0,0,1-.51.59.67.67,0,0,1-.56-.65.48.48,0,0,1,.47-.59"/>
        <path class="cls-10" d="M101.88,65.41a.51.51,0,0,0-.5.59.68.68,0,0,0,.58.64.51.51,0,0,0,.5-.59.67.67,0,0,0-.58-.63"/>
        <path class="cls-10" d="M105.46,61.87a.75.75,0,0,1,.63.54c.08.29-.05.51-.33.5a.76.76,0,0,1-.63-.54c-.06-.29.07-.51.33-.5"/>
        <path class="cls-10" d="M101.86,61.73a.52.52,0,0,0-.52.49.43.43,0,0,0,.41.52.57.57,0,0,0,.55-.49.45.45,0,0,0-.44-.52"/>
        <path class="cls-10" d="M106.91,61.94c.18,0,.37.24.4.53s0,.51-.21.5-.37-.24-.42-.53.06-.51.23-.5"/>
        <path class="cls-10" d="M100.41,61.68c-.18,0-.3.22-.3.49s.14.51.32.51.32-.21.32-.49-.15-.51-.33-.51"/>
        <path class="cls-10" d="M105.8,63.63a.69.69,0,0,1,.56.62c0,.32-.15.58-.42.56a.71.71,0,0,1-.56-.62.44.44,0,0,1,.42-.56"/>
        <path class="cls-10" d="M101.82,63.46a.49.49,0,0,0-.46.56.55.55,0,0,0,.47.6.51.51,0,0,0,.49-.56.58.58,0,0,0-.5-.6"/>
        <path class="cls-10" d="M105.53,60.63c.21.19.28.45.19.58s-.36.08-.56-.1-.28-.45-.17-.58.35-.09.55.1"/>
        <path class="cls-10" d="M101.65,60.48a.45.45,0,0,0-.11.57.38.38,0,0,0,.54-.07.41.41,0,0,0,.09-.56.36.36,0,0,0-.52.06"/>
        <path class="cls-10" d="M107.72,67.7c.2,0,.38.31.41.65s-.12.61-.32.6-.38-.3-.41-.64.12-.62.32-.61"/>
        <path class="cls-10" d="M100.51,67.32c-.2,0-.35.26-.34.6s.21.62.41.62.36-.25.33-.59-.19-.62-.4-.63"/>
        <path class="cls-10" d="M107.36,63.68c.2,0,.41.29.43.64s-.11.61-.3.6-.38-.29-.41-.64.08-.61.28-.6"/>
        <path class="cls-10" d="M100.23,63.37c-.2,0-.33.26-.3.6s.21.62.39.62.35-.25.33-.59-.22-.62-.42-.62"/>
        <path class="cls-10" d="M107.36,63.68c.2,0,.41.29.43.64s-.11.61-.3.6-.38-.29-.41-.64.08-.61.28-.6"/>
        <path class="cls-10" d="M100.23,63.37c-.2,0-.33.26-.3.6s.21.62.39.62.35-.25.33-.59-.22-.62-.42-.62"/>
        <path class="cls-10" d="M107.54,65.69c.2,0,.4.3.44.64s-.13.61-.33.6-.37-.3-.39-.64.09-.61.29-.6"/>
        <path class="cls-10" d="M100.37,65.35c-.21,0-.34.26-.32.6s.2.62.39.62.35-.26.34-.6-.22-.62-.42-.62"/>
        <path class="cls-4" d="M94.8,31a.93.93,0,1,0-.58-1.19A.93.93,0,0,0,94.8,31"/>
        <path class="cls-4" d="M93.6,35.91A.93.93,0,1,0,93,34.72a.93.93,0,0,0,.58,1.19"/>
        <path class="cls-4" d="M92.41,40.78a.93.93,0,1,0-.58-1.19.94.94,0,0,0,.58,1.19"/>
        <path class="cls-4" d="M91.22,45.66a.93.93,0,1,0-.58-1.19.93.93,0,0,0,.58,1.19"/>
        <path class="cls-4" d="M90,50.53a.93.93,0,1,0-.58-1.19A.94.94,0,0,0,90,50.53"/>
        <path class="cls-7" d="M72.23,106.28a10.29,10.29,0,0,0-2,2.41c-.19.35-.66,1.36-.34,1.76s.68.25,1.08.18Zm-15.84-4.64a18.5,18.5,0,0,1-1.74,1.92l1.48-.21a6.29,6.29,0,0,1,.25-1.71m-9.6,2.61c1.85-.86,5.51-4.27,5.6-6.27a1.36,1.36,0,0,0,0-.35,4.74,4.74,0,0,0-1.24.05L48.54,98Zm15.35,1.54a4.69,4.69,0,0,1-2.19.77l-.11,0-14.28,2-1,3.64-5.65.79,4-14.19-2.44.34c-2.41.34-3.8-.62-3.62-3.33l.06-.86L52.44,92.8a8.32,8.32,0,0,1,3.75.15,3.5,3.5,0,0,1,2.29,3.6,6.56,6.56,0,0,1-.58,2.58l.05-.05a6.85,6.85,0,0,1,3.9-1.86l6.87-1-1.57,5.53,1.37-.19c0-.08,0-.16,0-.25a4.66,4.66,0,0,1,.15-1.14,5.77,5.77,0,0,1,2.14-3.35,6.94,6.94,0,0,1,3.32-1.35l6.84-1-1.58,5.53,1.78-.25,1.59-5.53,10.83-1.52L92,98.3l1.08-.15a4.54,4.54,0,0,1,0-.48,4.77,4.77,0,0,1,.06-.74,5.34,5.34,0,0,1,1.78-3.25A7.3,7.3,0,0,1,98.78,92l11-1.55L109.45,92a3.46,3.46,0,0,1-3.13,2.75l-2.23.31a3.22,3.22,0,0,1,.09,1,5.26,5.26,0,0,1-1.75,3.58,6.52,6.52,0,0,1-3.54,1.44l-.13,0-10.12,1.42A2.78,2.78,0,0,1,87,102.3a3.85,3.85,0,0,1-1.77.71l-6.93,1-2,7c-.62,2.18-2.78,3.32-4.72,3.77s-4.45.15-5.68-1.85a5.08,5.08,0,0,1-.05-4.74,10.09,10.09,0,0,1,1.83-2.69L63.9,106a3,3,0,0,1-1.76-.22"/>
        <path class="cls-6" d="M93.82,97.27a4,4,0,0,1,0-.46,4.29,4.29,0,0,1,1.44-2.63,6.34,6.34,0,0,1,3.38-1.41l9.6-1.35a2.46,2.46,0,0,1-2.31,2l-3.69.52a1.34,1.34,0,0,1,.52.75,2.51,2.51,0,0,1,.16,1c0,.13,0,.25,0,.37l-3.45.46L99,98.25l1.15-4-2.21.31-.66,2.29ZM86.9,99.75l1.59-5.55L92,93.72l-1.12,3.95-3.48.47Zm-5.07.11,1.41-4.92,3.5-.49-1.08,3.76h0l-.2.7.16-.55-3.49.47Zm-12.59.71a3.94,3.94,0,0,1,.08-.39,4.72,4.72,0,0,1,1.76-2.76A5.94,5.94,0,0,1,74,96.25l5.33-.75-1.1,3.87-3.45.46.6-2.14-1.81.25-.76,2.71.16-.58Zm-12.37,1.66a4.74,4.74,0,0,1,1.43-2.65A5.88,5.88,0,0,1,61.66,98L67,97.22l-1.58,5.55.5-1.76-3.42.46-.5,1.78,1.08-3.84-2,.28-.55,2Zm.3-6c0,2.11-1.61,4.45-3.71,6.43l-4.17.56c1.84-1.58,3.67-3.81,3.75-5.52,0-.77-.21-1.24-.72-1.4a4.26,4.26,0,0,0-1.66,0l-3.22.45L43.4,111l2-7.26-3.5.47-2.06,7.28,4-14.23-4,.56c-1.94.27-2.64-.33-2.52-2.22l14.77-2.08a7.34,7.34,0,0,1,3.32.11,2.47,2.47,0,0,1,1.62,2.62"/>
        <path class="cls-4" d="M99.66,96.48l-.17,0L99,98.25l1.15-4,.17,0Zm3-2.26a2.12,2.12,0,0,1,.2.43,3,3,0,0,1,.16.71c0-.11-.06-.23-.11-.35a1.33,1.33,0,0,0-.52-.75Zm-8.79,3a3.82,3.82,0,0,1,0-.46,4.28,4.28,0,0,1,1.44-2.62,6.34,6.34,0,0,1,3.38-1.41l9.61-1.35a3.12,3.12,0,0,1-.11.38l-9.43,1.33a6.34,6.34,0,0,0-3.38,1.41,4.28,4.28,0,0,0-1.44,2.63v.09ZM86.9,99.75l1.59-5.55L92,93.72l-.11.38-3.3.46-1,3.55-.17,0Zm-1.39-1,0,.17Zm-3.68,1.11,1.41-4.92,3.5-.49-.11.38-3.33.47-1,3.51-.17,0Zm-9,.59-.06.2Zm2.08-.65-.17,0,.6-2.14.16,0Zm-5.67.76c0-.13,0-.26.08-.39a4.72,4.72,0,0,1,1.76-2.76A6,6,0,0,1,74,96.25l5.33-.75-.11.38L74,96.61a5.94,5.94,0,0,0-2.88,1.16,4.69,4.69,0,0,0-1.76,2.76v0Zm-6.53.88-.17,0-.5,1.78,1.08-3.84.16,0Zm3.14-.06-.4,1.38Zm-9,.84a4.76,4.76,0,0,1,1.43-2.65A5.88,5.88,0,0,1,61.66,98L67,97.22l-.11.38-5.2.73a5.91,5.91,0,0,0-3.37,1.6A4.77,4.77,0,0,0,57,102.21ZM37.5,96.78a4,4,0,0,1-.06-1.17l14.77-2.08a7.31,7.31,0,0,1,3.32.11,2.34,2.34,0,0,1,1.6,2.12A2.27,2.27,0,0,0,55.59,94a7.32,7.32,0,0,0-3.32-.11L37.5,96a5.07,5.07,0,0,0,0,.81m4.61,7.43-.17,0-2.06,7.28,4-14.23.16,0Zm3.22-.07L43.4,111Zm4.48-1-.54.07c1.84-1.58,3.67-3.81,3.74-5.52a3.1,3.1,0,0,0,0-.32,2.23,2.23,0,0,1,.06.68c-.07,1.56-1.6,3.56-3.26,5.09"/>
        <path class="cls-4" d="M45.58,103.27l-.2.71-3.5.47.2-.71Zm53.83-6.51.2-.71L103,95.6v.07a4.49,4.49,0,0,1-.09.63Zm-5.59.75s0-.09,0-.14a3.73,3.73,0,0,1,0-.55l3.55-.47-.21.71Zm-6.53.87.2-.71L91,97.21l-.2.71Zm-5.24.7.21-.71,3.49-.47-.09.31h0l-.11.4Zm-7.38,1,.2-.71,3.45-.46-.2.71Zm-5.46.73a3.9,3.9,0,0,1,.11-.62l0-.08,3.73-.5-.2.71Zm-6.74.9.2-.71,3.42-.46-.2.71Zm-5.64.75a5.27,5.27,0,0,1,.14-.7l3.73-.5-.19.71ZM54,102.15c-.27.27-.54.54-.82.79L49,103.5c.31-.25.61-.52.92-.81Z"/>
        <path class="cls-11" d="M73.76,103.22c-7.35,5.18-5.86,9.23-2.29,8Zm-28.32.54-2,7.26-3.52.49,2.07-7.28Zm8-1.08a22.68,22.68,0,0,1-2.66,2.15l6.09-.86a3.16,3.16,0,0,1-.1-.8,5.65,5.65,0,0,1,.08-.94l3.71-.5-.12.44a1.71,1.71,0,0,0-.06.42c0,.59.55.81,1.64.66l.5-1.78,3.42-.46-.5,1.76,4-.56a2.53,2.53,0,0,1-.24-1.14,3.08,3.08,0,0,1,0-.5l3.69-.5-.16.58a1.74,1.74,0,0,0-.07.44c0,.58.36.82,1.09.72l.21,0,.21,0,.54-1.9,3.45-.46L77.71,101l4-.56a3.29,3.29,0,0,1,.13-.63l.29-1,3.49-.47-.16.55a1.34,1.34,0,0,0,0,.17c0,.52.41.76,1.22.7l.23,0,.46-1.62,3.48-.47-.45,1.6,3.78-.53a2.58,2.58,0,0,1-.35-1.36s0-.07,0-.1l3.46-.46-.13.46a1.5,1.5,0,0,0-.06.4c0,.59.44.81,1.46.67l.45-.08.5-1.75,3.45-.46a4.17,4.17,0,0,1-1.37,2.51,5.64,5.64,0,0,1-3.08,1.2l-.09,0L88.25,101.2c-.94.13-1.41-.12-1.41-.76a2.89,2.89,0,0,1-2,1.25l-1.32.19-.17,0h0l-6.07.86L75,110.43c-.34,1.19-1.54,2.49-4,3.06-5.43,1.25-7.95-4.53-.35-9.82l-7.23,1q-1.56.22-1.56-.84c-.43.86-1,1.19-2.41,1.4h-.24l-13.3,1.87.57-2.09a10.39,10.39,0,0,0,2.77-1.81Z"/>
      </g>
    </g>
  </g>
</svg>
